<?xml version="1.0"?><svg width="640" height="480" xmlns="http://www.w3.org/2000/svg">
 <title>reflection swirl</title>
 <metadata id="metadata1497">image/svg+xml</metadata>
 <g>
  <title>Layer 1</title>
  <g id="svg_1">
   <path d="m312.313995,202.343994c0,3.116013 1.802002,8.01001 5.612,12.904999c0.453003,0.672012 0.904999,1.114014 1.571014,1.784012l0,3.337997l0,0.890991l0,3.115005c-2.468018,-1.334 -7.856995,-4.227997 -14.141998,-5.563995c0.894989,3.11499 -0.218018,5.787994 -3.822021,5.787994c-2.694977,0 -4.711975,-1.557999 -7.40799,-1.557999c-2.915009,0 -4.712006,1.557999 -4.712006,3.337006c0,1.778 0.227997,3.784988 1.569,6.009003c-0.449005,0 -6.28299,-2.003006 -6.28299,-6.009003c0,-3.786011 1.796997,-6.453003 4.490997,-8.01001c-14.597992,2.001007 -26.274994,8.901001 -36.828003,16.468002c0.447998,3.335999 1.570007,6.451996 3.145004,8.902008c0.444992,-5.122009 3.37001,-11.129013 10.331009,-11.129013c5.838989,0 11.678986,1.782013 13.021973,10.461014c-1.570984,-0.669006 -3.362976,-1.333008 -5.838989,-1.333008c-2.016998,0 -4.265991,2.891998 -4.265991,5.115005c0,4.231003 4.044983,8.457993 10.778992,8.457993c17.287994,0 22.231018,-12.908997 22,-20.697998l2.699005,0c0,17.807007 -13.02301,25.37001 -24.699005,25.37001c-17.286987,0 -27.389999,-9.56601 -30.529999,-22.697006c-14.832993,10.903992 -27.848999,22.255997 -44.242004,22.255997c-7.181,0 -13.922989,-2.671997 -13.922989,-10.686996c0,-8.009003 4.942001,-9.791 8.978989,-9.791c4.716003,0 8.31601,3.33699 8.31601,6.453003c0,3.783997 -3.819,5.342987 -6.068008,4.452988c1.123001,-1.11499 1.572006,-2.224991 1.572006,-4.230988c0,-1.778 -2.468994,-4.001007 -4.714005,-4.001007c-4.037994,0 -6.067993,3.113007 -6.067993,7.117004c0,5.121994 3.819,7.569992 9.209991,7.569992c11.449005,0 15.264999,-23.145996 26.944,-23.145996c5.62001,0 6.743011,4.229004 6.743011,5.785995c0,1.337006 -0.457001,4.674011 -0.457001,4.674011c4.26799,-2.891998 8.530991,-6.231003 13.246994,-9.794998c-0.220001,-1.779007 -0.445999,-3.558014 -0.445999,-5.563004c0,-1.331009 0,-2.893997 0.227005,-4.225006c-10.334,1.109009 -15.044998,-6.235992 -15.044998,-11.130005c0,-4.895996 3.139999,-8.459 8.082993,-8.459c3.145004,0 5.612,2.893005 5.612,5.786011c0,2.227997 -0.893997,3.785995 -3.591003,3.785995c-2.019989,0 -3.14299,-1.783997 -3.14299,-2.893997c0,-2.671005 2.465988,-2.449005 2.465988,-3.341003c-0.663986,-0.886002 -1.789993,-0.442993 -2.694,-0.442993c-1.789993,0 -4.485992,2.00499 -4.485992,5.119995c0,6.451996 6.516006,9.569992 13.246994,9.125c3.143005,-16.246994 17.96199,-25.598007 32.335007,-25.598007c11.674011,0 21.329987,4.677002 29.86499,12.244003c-1.122986,-1.783997 -2.027985,-4.229996 -2.027985,-7.121994c0,-3.563995 1.354004,-6.459 4.493988,-6.459c4.042999,0 6.059998,2.671997 6.964996,5.565002c-4.049988,-1.334 -8.089996,-0.665009 -8.089996,2.006989zm-86,43.62001c-2.466995,0 -5.390991,4.228989 -8.751999,8.906998c2.248001,-1.115005 7.85701,-4.007004 10.768997,-6.457001c0,-1.115005 -0.217987,-2.449997 -2.016998,-2.449997zm27.848999,-22.921005c-1.353989,2.891998 -2.019989,5.787003 -2.019989,8.231003c7.41098,-5.115997 15.488007,-10.238007 24.927002,-13.576004c-7.411011,1.335999 -16.175995,3.563995 -22.907013,5.345001zm32.781006,-23.371002c1.571014,1.779999 1.791992,2.003006 1.791992,4.007996c0,3.338013 -1.791992,5.561005 -6.954987,5.561005c-2.476013,0 -4.942017,-0.886993 -6.962006,-0.886993c-8.531006,0 -15.048004,5.565002 -18.867004,11.57399c8.763,-2.449997 21.335999,-6.007996 36.382996,-6.007996c-0.904999,-0.671005 -1.352997,-1.785004 -1.352997,-3.343994c0,-2.001007 0.904999,-3.557007 3.591003,-4.671005c-0.217987,4.007996 2.248993,5.563995 7.19101,5.563995c3.820007,0 4.941986,1.335007 4.941986,3.115005l-0.454987,1.337006c4.721985,1.334 9.888,3.112991 12.130005,4.006989c-10.779999,-12.686996 -21.112,-20.033997 -31.437012,-20.255997zm31.434998,-14.244003c-0.453003,-1.778992 -1.79599,-5.786987 -4.044983,-5.786987c-5.160004,0 -9.876007,3.561996 -15.037018,3.561996c-3.820007,0 -8.764984,-2.893005 -8.764984,-7.121002c0,-1.785004 1.353973,-2.893005 3.144989,-3.119995c-0.221008,0.668991 -0.449005,1.334991 -0.449005,2.00499c0,1.335999 0.894989,2.451004 2.248993,2.451004c4.483002,0 8.085022,-3.343002 12.571014,-3.343002c1.342987,0 2.696991,0.447998 4.039001,0.891998c-2.695007,-2.00499 -6.503998,-4.006989 -9.875,-4.672989c-11.230011,-1.783005 -25.821014,-7.792007 -24.25,-19.366013c0.445984,-3.781998 3.59198,-5.55899 6.28598,-5.116989c-1.342987,1.113998 -2.694,2.001999 -2.694,3.785995c0,6.453003 8.305023,6.675995 13.019012,6.675995c4.942017,0 15.276001,-1.113998 15.276001,6.679001c0,2.667007 -2.247986,4.673004 -4.712006,5.115997c6.731018,3.337006 13.463013,7.792007 15.037018,15.581009l-1.795013,1.778992zm122.597992,74.116013c-16.393982,0 -29.410004,-11.352005 -44.231995,-22.256012c-2.924988,13.131012 -13.244995,22.697998 -30.54599,22.697998c-11.446991,0 -24.696014,-7.564987 -24.696014,-25.370987l2.703003,0c0,7.789001 4.927002,20.697998 21.994019,20.697998c6.746002,0 10.781982,-4.227997 10.781982,-8.458008c0,-2.222992 -2.244995,-5.11499 -4.264008,-5.11499c-2.46698,0 -4.267975,0.664001 -5.837982,1.332993c1.34198,-8.679001 7.182007,-10.460999 13.020996,-10.460999c7.188995,0 9.88501,6.007004 10.330994,11.128998c1.571991,-2.449997 2.692993,-5.567001 3.143005,-8.901993c-10.553009,-7.567001 -22.22699,-14.468002 -36.821014,-16.468002c2.686005,1.556 4.485016,4.222992 4.485016,8.009003c0,4.007996 -5.834015,6.009995 -6.286011,6.009995c1.343018,-2.223999 1.572021,-4.231003 1.572021,-6.009995c0,-1.778 -1.572021,-3.335999 -4.715027,-3.335999c-2.696991,0 -4.713989,1.557999 -7.405975,1.557999c-3.594025,0 -4.719025,-2.674011 -3.822021,-5.78801c-6.285004,1.337006 -11.673981,4.230011 -14.139984,5.564011l0,-3.115005l0,-0.891006l0,-3.337997l1.787994,-1.783997c3.81601,-4.895004 5.393005,-9.789001 5.393005,-12.904999c0,-2.671997 -4.039001,-3.341003 -8.085999,-2.005997c0.904999,-2.893005 2.92099,-5.565002 6.960999,-5.565002c3.143005,0 4.490997,2.895004 4.490997,6.459c0,2.891998 -0.89801,5.337997 -2.018005,7.121994c8.753998,-7.567001 18.182007,-12.244003 29.856018,-12.244003c14.603973,0 29.191986,9.351013 32.340973,25.598007c6.732025,0.444 13.245026,-2.673996 13.245026,-9.125c0,-3.115005 -2.468018,-5.119995 -4.486023,-5.119995c-0.906982,0 -2.026978,-0.444 -2.696991,0.442993c0,0.893005 2.468994,0.669998 2.468994,3.341003c0,1.110001 -0.89798,2.893997 -3.143005,2.893997c-2.697998,0 -3.595001,-1.557999 -3.595001,-3.785995c0,-2.891998 2.469025,-5.785995 5.612,-5.785995c4.942017,0 8.085022,3.561996 8.085022,8.459c0,4.893997 -4.71402,12.238998 -15.045013,11.12999c0.222992,1.331009 0.222992,2.893005 0.222992,4.225006c0,2.005005 0,3.783997 -0.222992,5.563004c4.497009,3.564987 8.97702,6.903 13.028015,9.794998c0,0 -0.446014,-3.337006 -0.446014,-4.674011c0,-1.556 1.34201,-5.785995 6.731995,-5.785995c11.679016,0 15.494995,23.146011 26.94101,23.146011c5.388,0 9.210999,-2.448013 9.210999,-7.570007c0,-4.003998 -2.027985,-7.117004 -6.067993,-7.117004c-2.246002,0 -4.714996,2.223007 -4.714996,4.001007c0,2.005997 0.451996,3.115997 1.571991,4.231003c-2.246002,0.890991 -6.062012,-0.669006 -6.062012,-4.453003c0,-3.115997 3.81601,-6.453003 8.314026,-6.453003c4.033997,0 8.975983,1.781998 8.975983,9.791c0.001007,8.014008 -6.730011,10.686005 -13.919006,10.686005zm-97.451996,-89.25c-3.371002,0.666 -7.182007,2.667999 -9.875,4.672989c1.343994,-0.444 2.692993,-0.891998 4.036011,-0.891998c4.494995,0 8.089996,3.343002 12.570984,3.343002c1.576019,0 2.25,-1.113998 2.25,-2.451004c0,-0.669998 0,-1.335999 -0.451996,-2.00499c1.804993,0.22699 3.149017,1.334991 3.149017,3.119995c0,4.227997 -4.714996,7.121002 -8.76001,7.121002c-5.165985,0 -9.656006,-3.561996 -15.044006,-3.561996c-2.246002,0 -3.588989,4.007996 -4.035004,5.786987l-1.802979,-1.778992c1.574982,-7.789001 8.307983,-12.244003 15.047974,-15.581009c-2.478973,-0.444 -4.719971,-2.449997 -4.719971,-5.115997c0,-7.792999 10.553986,-6.679001 15.273987,-6.679001c4.713989,0 13.016998,-0.222992 13.016998,-6.675995c0,-1.783997 -1.118988,-2.671997 -2.69101,-3.785995c2.69101,-0.442001 5.834015,1.334991 6.286011,5.116989c1.570984,11.574005 -13.02301,17.583008 -24.251007,19.366013zm27.394012,38.059998c-2.018005,0 -4.485992,0.886993 -6.959991,0.886993c-4.937012,0 -6.960022,-2.222992 -6.960022,-5.561005c0,-2.00499 0.451996,-2.227997 1.794006,-4.007996c-10.325012,0.223007 -20.661011,7.569 -31.427002,20.255005c2.235016,-0.893005 7.404999,-2.671997 12.119995,-4.007004l-0.445984,-1.337006c0,-1.779999 1.113983,-3.11499 4.931976,-3.11499c4.94101,0 7.410004,-1.556 7.193024,-5.563995c2.696991,1.113998 3.587982,2.67099 3.587982,4.67099c0,1.559006 -0.444977,2.673004 -1.346985,3.344009c15.044006,0 27.615997,3.557999 36.596985,6.007996c-4.039978,-6.007996 -10.552979,-11.572998 -19.083984,-11.572998zm20.654999,14.688995c-6.731018,-1.779999 -15.485992,-4.009003 -22.895996,-5.343994c9.427979,3.33699 17.513,8.459 24.923981,13.575989c0,-2.444992 -0.677979,-5.339996 -2.027985,-8.231995zm27.848999,22.921005c-1.799011,0 -2.016998,1.334991 -2.016998,2.449997c2.908997,2.449997 8.531006,5.341995 10.766998,6.457001c-3.360992,-4.678009 -6.285004,-8.906998 -8.75,-8.906998z" fill="#ffffff" id="path1406"/>
   <g id="g1408">
    <path d="m105.698997,243.264008c-0.633995,-2.488007 -2.512001,-8.090012 -5.654999,-8.090012c-7.213196,0 -13.807297,4.981003 -21.021202,4.981003c-5.339195,0 -12.252296,-4.044998 -12.252296,-9.955002c0,-2.494995 1.893799,-4.043991 4.397697,-4.362c-0.308899,0.936005 -0.6278,1.865997 -0.6278,2.803009c0,1.866989 1.2519,3.424988 3.143204,3.424988c6.268196,0 11.303596,-4.672989 17.574402,-4.672989c1.877594,0 3.768997,0.626999 5.643394,1.246994c-3.7658,-2.802994 -9.0914,-5.600998 -13.803894,-6.531998c-15.698807,-2.492004 -36.095905,-10.891998 -33.900402,-27.072006c0.623699,-5.287994 5.020298,-7.771988 8.786198,-7.153992c-1.877098,1.556992 -3.7659,2.796997 -3.7659,5.291992c0,9.021011 11.610504,9.332001 18.200699,9.332001c6.9095,0 21.355301,-1.557999 21.355301,9.335999c0,3.728012 -3.143196,6.531998 -6.586098,7.151001c9.410202,4.667007 18.820702,10.895004 21.020699,21.783005l-2.509003,2.488007z" fill="#ffffff" id="path1410"/>
   </g>
   <g id="g1412">
    <path d="m538.122986,245.776001c2.199036,-10.888 11.606995,-17.115997 21.02002,-21.783005c-3.444031,-0.619003 -6.585999,-3.422989 -6.585999,-7.151001c0,-10.893997 14.442993,-9.335999 21.35498,-9.335999c6.585999,0 18.197998,-0.310989 18.197998,-9.332001c0,-2.494003 -1.886963,-3.733994 -3.763977,-5.291992c3.763977,-0.619003 8.161987,1.865997 8.783997,7.153992c2.198975,16.179001 -18.197021,24.580002 -33.901001,27.072006c-4.708984,0.931 -10.036011,3.729004 -13.801025,6.531998c1.873047,-0.621002 3.765015,-1.246994 5.643005,-1.246994c6.27002,0 11.30603,4.672989 17.575989,4.672989c1.887024,0 3.143005,-1.557999 3.143005,-3.424988c0,-0.937012 -0.32196,-1.867004 -0.627991,-2.803009c2.504028,0.318008 4.397034,1.865997 4.397034,4.362c0,5.910004 -6.912048,9.955002 -12.255005,9.955002c-7.213989,0 -13.804016,-4.981003 -21.019043,-4.981003c-3.142944,0 -5.019958,5.602997 -5.657959,8.090012l-2.504028,-2.488007z" fill="#ffffff" id="path1414"/>
   </g>
   <g id="g1416">
    <path d="m525.091003,257.240997c-6.830017,4.963013 -18.027008,11.459991 -55.082001,7.76001c-10.108002,-0.993011 -20.127014,-2.526001 -30.324005,-4.059998c-6.373993,-0.902008 -12.834991,-1.716003 -19.302002,-2.347015c-4.553009,-0.451996 -16.024994,-1.626007 -20.303986,-1.173004c-4.464996,0.451019 -6.192017,1.987 -6.286011,2.798004c0,0.179993 -0.088013,0.542999 0.093994,0.722992c0.093994,0.541016 0.457001,0.903015 0.457001,1.263c-0.095001,0.814026 -2.188995,1.624023 -4.097992,1.445007c-1.274994,-0.089996 -2.550995,-0.902985 -2.463013,-1.987c0.183014,-0.98999 3.371002,-4.872986 11.020996,-5.955002c6.19101,-0.810989 13.291016,0 37.605011,2.345993c30.222992,2.979004 50.53299,3.068024 65.920013,-2.07399c11.290009,-3.701996 28.408966,-13.266998 30.042999,-26.897003c1.550964,-12.181992 -9.28302,-18.047989 -18.390015,-18.950989c-18.846008,-1.806 -37.785004,14.621002 -39.242981,26.173996c-0.819,6.406998 4.734985,9.925995 10.652985,10.468002c6.285004,0.632004 11.382996,-1.893997 15.842987,-5.143005c8.013,-5.865997 8.926025,-10.110992 9.194,-12.095001c0.276001,-2.07399 -0.087982,-3.789001 -1.088989,-5.052002c-0.824005,-0.992996 -1.458008,-1.084 -2.550995,-1.173996c-0.455994,0 -1.182007,-0.093002 -1.093994,-0.813995c0.093994,-0.992004 1.093994,-0.902008 1.462006,-0.813004c3.003998,0.270996 6.825958,3.880997 6.093964,9.837006c-1.269989,9.837997 -13.835968,18.231003 -27.314972,16.876999c-11.015015,-1.083008 -16.02002,-9.115005 -15.019012,-16.786011c1.639008,-13.356995 21.304993,-26.353989 40.151001,-24.459c16.937988,1.625 28.322021,15.073013 26.496033,30.234009c-1.096008,8.574005 -5.82605,14.981003 -12.473022,19.854996z" fill="#ffffff" id="path1418"/>
   </g>
   <g id="g1420">
    <path d="m110.360001,237.695007c-1.822998,-15.160004 9.556999,-28.609009 26.498001,-30.234009c18.845993,-1.895004 38.511993,11.100998 40.153992,24.459c0.998001,7.671997 -4.008987,15.703003 -15.023987,16.785995c-13.479004,1.354004 -26.042007,-7.039993 -27.315002,-16.876999c-0.731003,-5.955994 3.093002,-9.567001 6.097,-9.835999c0.367996,-0.091003 1.367996,-0.179993 1.459,0.813004c0.091003,0.720001 -0.63501,0.813004 -1.09201,0.813004c-1.093994,0.091003 -1.729996,0.181 -2.551987,1.171997c-1.001007,1.263 -1.363007,2.979004 -1.089005,5.052994c0.268997,1.986008 1.179001,6.229004 9.194,12.097c4.459991,3.248001 9.557999,5.77301 15.841995,5.143005c5.917999,-0.542999 11.473999,-4.063004 10.652008,-10.468994c-1.458008,-11.552002 -20.397003,-27.979004 -39.243011,-26.175003c-9.106995,0.903 -19.937996,6.770004 -18.389992,18.953003c1.635994,13.627991 18.752998,23.194992 30.045998,26.895996c15.386993,5.143005 35.692993,5.053009 65.919998,2.075012c24.313995,-2.346008 31.412994,-3.15802 37.606003,-2.346008c7.646988,1.083008 10.836014,4.963989 11.017014,5.955994c0.090973,1.084015 -1.184021,1.89801 -2.461029,1.987c-1.91098,0.179993 -4.003983,-0.632996 -4.096985,-1.445984c0,-0.360016 0.363007,-0.720001 0.455994,-1.263c0.182007,-0.179016 0.093002,-0.541016 0.093002,-0.720001c-0.093002,-0.813019 -1.822998,-2.347015 -6.285004,-2.800018c-4.278992,-0.450989 -15.752991,0.722015 -20.302994,1.173004c-6.468002,0.631989 -12.929993,1.446014 -19.302994,2.347015c-10.195999,1.534973 -20.216003,3.067993 -30.320999,4.062988c-37.057007,3.700012 -48.257004,-2.799988 -55.084007,-7.761993c-6.645996,-4.873016 -11.380997,-11.283005 -12.474998,-19.858002l0,0z" fill="#ffffff" id="path1422"/>
   </g>
  </g>
  <g id="svg_2">
   <path d="m307.150177,204.268768c0,3.115997 1.802002,8.01001 5.612,12.904999c0.453003,0.671997 0.904999,1.114014 1.571014,1.783997l0,3.338013l0,0.890991l0,3.11499c-2.468018,-1.333984 -7.856995,-4.227966 -14.141998,-5.563965c0.894989,3.11499 -0.218018,5.787964 -3.822021,5.787964c-2.694977,0 -4.711975,-1.557983 -7.40799,-1.557983c-2.915009,0 -4.712006,1.557983 -4.712006,3.337006c0,1.777985 0.227997,3.785004 1.569,6.009003c-0.449005,0 -6.28299,-2.002991 -6.28299,-6.009003c0,-3.786011 1.796997,-6.453003 4.490997,-8.01001c-14.597992,2.001007 -26.274994,8.901001 -36.828003,16.467987c0.447998,3.336029 1.570007,6.452026 3.14502,8.902039c0.444977,-5.122009 3.369995,-11.129028 10.330994,-11.129028c5.838989,0 11.678986,1.782013 13.021973,10.460999c-1.570984,-0.668976 -3.362976,-1.333008 -5.838989,-1.333008c-2.016998,0 -4.265991,2.891998 -4.265991,5.115021c0,4.230988 4.044983,8.457977 10.778992,8.457977c17.287994,0 22.231018,-12.908966 22,-20.697998l2.699005,0c0,17.807007 -13.02301,25.370026 -24.699005,25.370026c-17.286987,0 -27.389999,-9.56601 -30.529999,-22.697021c-14.832993,10.904022 -27.848999,22.256012 -44.242004,22.256012c-7.181,0 -13.922989,-2.671997 -13.922989,-10.686981c0,-8.009003 4.942001,-9.791016 8.978989,-9.791016c4.716003,0 8.31601,3.337006 8.31601,6.453003c0,3.783997 -3.819,5.342987 -6.068008,4.452972c1.123001,-1.11496 1.572006,-2.224976 1.572006,-4.230957c0,-1.778015 -2.468994,-4.001038 -4.714005,-4.001038c-4.037994,0 -6.067993,3.113037 -6.067993,7.117035c0,5.121979 3.819,7.569977 9.209991,7.569977c11.449005,0 15.264999,-23.145996 26.944,-23.145996c5.62001,0 6.743011,4.229004 6.743011,5.786011c0,1.337006 -0.457001,4.674011 -0.457001,4.674011c4.26799,-2.892029 8.530991,-6.231018 13.246994,-9.795013c-0.220001,-1.779022 -0.445999,-3.558014 -0.445999,-5.562988c0,-1.331024 0,-2.894012 0.227005,-4.225006c-10.334,1.108978 -15.044998,-6.236023 -15.044998,-11.130005c0,-4.895996 3.139999,-8.459015 8.082993,-8.459015c3.145004,0 5.612,2.893005 5.612,5.786011c0,2.227997 -0.893997,3.78598 -3.591003,3.78598c-2.019989,0 -3.14299,-1.783997 -3.14299,-2.893982c0,-2.671021 2.465988,-2.449005 2.465988,-3.341003c-0.663986,-0.885986 -1.789993,-0.442993 -2.694,-0.442993c-1.789993,0 -4.485992,2.005005 -4.485992,5.119995c0,6.451996 6.516006,9.570007 13.246994,9.125c3.143005,-16.247009 17.96199,-25.598022 32.335007,-25.598022c11.674011,0 21.329987,4.677002 29.86499,12.244019c-1.122986,-1.783997 -2.027985,-4.22998 -2.027985,-7.122009c0,-3.563965 1.354004,-6.458984 4.493988,-6.458984c4.042999,0 6.059998,2.671997 6.964996,5.565002c-4.049988,-1.333984 -8.089996,-0.665009 -8.089996,2.006989zm-86,43.619995c-2.466995,0 -5.390991,4.229004 -8.751999,8.907013c2.248001,-1.115021 7.85701,-4.007019 10.768997,-6.457001c0,-1.11499 -0.217987,-2.450012 -2.016998,-2.450012zm27.848999,-22.92099c-1.353989,2.891998 -2.019989,5.786987 -2.019989,8.231018c7.41098,-5.116028 15.488007,-10.238037 24.927002,-13.576019c-7.411011,1.335999 -16.175995,3.563995 -22.907013,5.345001zm32.781006,-23.371002c1.571014,1.779999 1.791992,2.003021 1.791992,4.007996c0,3.338013 -1.791992,5.561005 -6.954987,5.561005c-2.476013,0 -4.942017,-0.886993 -6.962006,-0.886993c-8.531006,0 -15.048004,5.565002 -18.867004,11.574005c8.763,-2.450012 21.335999,-6.007996 36.382996,-6.007996c-0.904999,-0.671021 -1.352997,-1.785034 -1.352997,-3.343994c0,-2.001038 0.904999,-3.557007 3.591003,-4.671021c-0.217987,4.007996 2.248993,5.563995 7.19101,5.563995c3.820007,0 4.941986,1.334991 4.941986,3.115021l-0.454987,1.336975c4.721985,1.334015 9.888,3.113007 12.130005,4.007019c-10.779999,-12.687012 -21.112,-20.033997 -31.437012,-20.256012zm31.434998,-14.243988c-0.453003,-1.778992 -1.79599,-5.786987 -4.044983,-5.786987c-5.160004,0 -9.876007,3.561981 -15.037018,3.561981c-3.820007,0 -8.764984,-2.893005 -8.764984,-7.121002c0,-1.785004 1.353973,-2.893005 3.144989,-3.119995c-0.221008,0.669006 -0.449005,1.334991 -0.449005,2.005005c0,1.335999 0.894989,2.450989 2.248993,2.450989c4.483002,0 8.085022,-3.343018 12.571014,-3.343018c1.342987,0 2.696991,0.447998 4.039001,0.892029c-2.695007,-2.005005 -6.503998,-4.007019 -9.875,-4.673004c-11.230011,-1.78299 -25.821014,-7.792023 -24.25,-19.365997c0.445984,-3.782013 3.59198,-5.559021 6.28598,-5.117004c-1.342987,1.114014 -2.694,2.002014 -2.694,3.786011c0,6.453003 8.305023,6.675964 13.019012,6.675964c4.942017,0 15.276001,-1.113983 15.276001,6.679016c0,2.666992 -2.247986,4.673004 -4.712006,5.115997c6.731018,3.337006 13.463013,7.792023 15.037018,15.581024l-1.795013,1.778992zm122.597992,74.115997c-16.393982,0 -29.410004,-11.35202 -44.231995,-22.256012c-2.924988,13.131012 -13.244995,22.697998 -30.54599,22.697998c-11.446991,0 -24.696014,-7.565002 -24.696014,-25.370972l2.703003,0c0,7.789001 4.927002,20.697968 21.994019,20.697968c6.746002,0 10.781982,-4.227997 10.781982,-8.458008c0,-2.222961 -2.244995,-5.11496 -4.264008,-5.11496c-2.46698,0 -4.267975,0.664001 -5.837982,1.332977c1.34198,-8.678986 7.182007,-10.460999 13.020996,-10.460999c7.188995,0 9.88501,6.006989 10.330994,11.128998c1.571991,-2.450012 2.692993,-5.566986 3.143005,-8.902008c-10.553009,-7.566986 -22.22699,-14.467987 -36.821014,-16.467987c2.686005,1.556 4.485016,4.222992 4.485016,8.009003c0,4.007996 -5.834015,6.009979 -6.286011,6.009979c1.343018,-2.223999 1.572021,-4.230988 1.572021,-6.009979c0,-1.777985 -1.572021,-3.335999 -4.715027,-3.335999c-2.696991,0 -4.713989,1.558014 -7.405975,1.558014c-3.594025,0 -4.719025,-2.674011 -3.822021,-5.788025c-6.285004,1.337006 -11.673981,4.230011 -14.139984,5.564026l0,-3.115021l0,-0.891022l0,-3.337982l1.787994,-1.783997c3.81601,-4.894989 5.393005,-9.789001 5.393005,-12.904999c0,-2.671997 -4.039001,-3.341003 -8.085999,-2.005981c0.904999,-2.893005 2.92099,-5.565002 6.960999,-5.565002c3.143005,0 4.490997,2.894989 4.490997,6.458984c0,2.891998 -0.89801,5.338013 -2.018005,7.122009c8.753998,-7.567017 18.182007,-12.244019 29.856018,-12.244019c14.603973,0 29.191986,9.351013 32.340973,25.598022c6.732025,0.444 13.245026,-2.674011 13.245026,-9.125c0,-3.115021 -2.468018,-5.119995 -4.486023,-5.119995c-0.906982,0 -2.026978,-0.444031 -2.696991,0.442993c0,0.893005 2.468994,0.669983 2.468994,3.341003c0,1.109985 -0.89798,2.893982 -3.143005,2.893982c-2.697998,0 -3.595001,-1.557983 -3.595001,-3.786011c0,-2.891968 2.469025,-5.78598 5.612,-5.78598c4.942017,0 8.085022,3.562012 8.085022,8.459015c0,4.893982 -4.71402,12.238983 -15.045013,11.129974c0.222992,1.331024 0.222992,2.893005 0.222992,4.225006c0,2.005005 0,3.783997 -0.222992,5.562988c4.497009,3.565002 8.97702,6.903015 13.028015,9.795013c0,0 -0.446014,-3.337006 -0.446014,-4.674011c0,-1.556 1.34201,-5.78598 6.731995,-5.78598c11.679016,0 15.494995,23.145996 26.94101,23.145996c5.388,0 9.210999,-2.448029 9.210999,-7.570007c0,-4.003998 -2.027985,-7.117004 -6.067993,-7.117004c-2.246002,0 -4.714996,2.222992 -4.714996,4.001007c0,2.006012 0.451996,3.115997 1.571991,4.230988c-2.246002,0.890991 -6.062012,-0.669006 -6.062012,-4.453003c0,-3.115967 3.81601,-6.453003 8.314026,-6.453003c4.033997,0 8.975983,1.782013 8.975983,9.791016c0.001007,8.014008 -6.730011,10.686005 -13.919006,10.686005zm-97.451996,-89.25c-3.371002,0.665985 -7.182007,2.667999 -9.875,4.673004c1.343994,-0.444031 2.692993,-0.892029 4.036011,-0.892029c4.494995,0 8.089996,3.343018 12.570984,3.343018c1.576019,0 2.25,-1.114014 2.25,-2.450989c0,-0.670013 0,-1.335999 -0.451996,-2.005005c1.804993,0.22699 3.149017,1.334991 3.149017,3.119995c0,4.227997 -4.714996,7.121002 -8.76001,7.121002c-5.165985,0 -9.656006,-3.561981 -15.044006,-3.561981c-2.246002,0 -3.588989,4.007996 -4.035004,5.786987l-1.802979,-1.778992c1.574982,-7.789001 8.307983,-12.244019 15.047974,-15.581024c-2.478973,-0.444 -4.719971,-2.449982 -4.719971,-5.115997c0,-7.792999 10.553986,-6.679016 15.273987,-6.679016c4.713989,0 13.016998,-0.222961 13.016998,-6.675964c0,-1.783997 -1.118988,-2.671997 -2.69101,-3.786011c2.69101,-0.442017 5.834015,1.334991 6.286011,5.117004c1.570984,11.573975 -13.02301,17.583008 -24.251007,19.365997zm27.394012,38.059998c-2.018005,0 -4.485992,0.886993 -6.959991,0.886993c-4.937012,0 -6.960022,-2.222992 -6.960022,-5.561005c0,-2.004974 0.451996,-2.227997 1.794006,-4.007996c-10.325012,0.222992 -20.661011,7.569 -31.427002,20.255005c2.235016,-0.893005 7.404999,-2.671997 12.119995,-4.006989l-0.445984,-1.337036c0,-1.779968 1.113983,-3.11499 4.931976,-3.11499c4.94101,0 7.410004,-1.555969 7.193024,-5.563965c2.696991,1.113983 3.587982,2.670959 3.587982,4.670959c0,1.559021 -0.444977,2.673035 -1.346985,3.344025c15.044006,0 27.615997,3.558014 36.596985,6.007996c-4.039978,-6.007996 -10.552979,-11.572998 -19.083984,-11.572998zm20.654999,14.688995c-6.731018,-1.779999 -15.485992,-4.009003 -22.895996,-5.343994c9.427979,3.336975 17.513,8.458984 24.923981,13.575989c0,-2.445007 -0.677979,-5.339996 -2.027985,-8.231995zm27.848999,22.92099c-1.799011,0 -2.016998,1.335022 -2.016998,2.450012c2.908997,2.449982 8.531006,5.34198 10.766998,6.457001c-3.360992,-4.678009 -6.285004,-8.907013 -8.75,-8.907013z" fill="#000000" id="svg_3"/>
   <g id="svg_4">
    <path d="m100.535187,245.188782c-0.634003,-2.488007 -2.512009,-8.089996 -5.654999,-8.089996c-7.213203,0 -13.807297,4.980988 -21.02121,4.980988c-5.339188,0 -12.252289,-4.044983 -12.252289,-9.955017c0,-2.494995 1.893799,-4.043976 4.39769,-4.362c-0.308899,0.936035 -0.627792,1.865997 -0.627792,2.803009c0,1.867004 1.251892,3.425018 3.143204,3.425018c6.268188,0 11.303589,-4.673004 17.574402,-4.673004c1.877586,0 3.768997,0.626984 5.643394,1.246979c-3.765808,-2.802979 -9.091408,-5.600983 -13.803902,-6.531982c-15.698807,-2.492004 -36.095901,-10.891998 -33.900398,-27.072021c0.623699,-5.287964 5.020298,-7.771973 8.786198,-7.153961c-1.877098,1.556976 -3.7659,2.796967 -3.7659,5.291992c0,9.020996 11.610508,9.332001 18.200703,9.332001c6.9095,0 21.355293,-1.558014 21.355293,9.335999c0,3.727997 -3.143196,6.531982 -6.586098,7.151001c9.410202,4.666992 18.820709,10.894989 21.020699,21.78299l-2.508995,2.488007z" fill="#000000" id="svg_5"/>
   </g>
   <g id="svg_6">
    <path d="m532.959167,247.700775c2.199036,-10.888 11.606995,-17.115997 21.02002,-21.78299c-3.444031,-0.619019 -6.585999,-3.423004 -6.585999,-7.151001c0,-10.894012 14.442993,-9.335999 21.35498,-9.335999c6.585999,0 18.197998,-0.311005 18.197998,-9.332001c0,-2.494019 -1.886963,-3.734009 -3.763977,-5.291992c3.763977,-0.619019 8.161987,1.865997 8.783997,7.153961c2.198975,16.179016 -18.197021,24.580017 -33.901001,27.072021c-4.708984,0.931 -10.036011,3.729004 -13.801025,6.531982c1.873047,-0.620972 3.765015,-1.246979 5.643005,-1.246979c6.27002,0 11.30603,4.673004 17.575989,4.673004c1.887024,0 3.143005,-1.558014 3.143005,-3.425018c0,-0.937012 -0.32196,-1.866974 -0.627991,-2.803009c2.504028,0.318024 4.397034,1.865997 4.397034,4.362c0,5.910034 -6.912048,9.955017 -12.255005,9.955017c-7.213989,0 -13.804016,-4.980988 -21.019043,-4.980988c-3.142944,0 -5.019958,5.602997 -5.657959,8.089996l-2.504028,-2.488007z" fill="#000000" id="svg_7"/>
   </g>
   <g id="svg_8">
    <path d="m519.927185,259.165771c-6.830017,4.963013 -18.027008,11.459991 -55.082001,7.76001c-10.108002,-0.993011 -20.127014,-2.526001 -30.324005,-4.059998c-6.373993,-0.902008 -12.834991,-1.716003 -19.302002,-2.347015c-4.553009,-0.451996 -16.024994,-1.626007 -20.303986,-1.173004c-4.464996,0.451019 -6.192017,1.987 -6.286011,2.798004c0,0.179993 -0.088013,0.542999 0.093994,0.722992c0.093994,0.541016 0.457001,0.903015 0.457001,1.263c-0.095001,0.814026 -2.188995,1.624023 -4.097992,1.445007c-1.274994,-0.089996 -2.550995,-0.902985 -2.463013,-1.987c0.183014,-0.98999 3.371002,-4.872986 11.020996,-5.955017c6.19101,-0.810974 13.291016,0 37.605011,2.346008c30.222992,2.979004 50.53299,3.068024 65.920013,-2.074005c11.290009,-3.701965 28.408966,-13.266998 30.042999,-26.897003c1.550964,-12.181976 -9.28302,-18.047974 -18.390015,-18.950958c-18.846008,-1.806 -37.785004,14.621002 -39.242981,26.173981c-0.819,6.406982 4.734985,9.925995 10.652985,10.468018c6.285004,0.631989 11.382996,-1.894012 15.842987,-5.143036c8.013,-5.865997 8.926025,-10.110992 9.19397,-12.095001c0.276001,-2.073975 -0.087952,-3.789001 -1.088959,-5.052002c-0.824005,-0.992981 -1.458008,-1.083984 -2.550995,-1.173981c-0.455994,0 -1.182007,-0.092987 -1.093994,-0.813995c0.093994,-0.992004 1.093994,-0.902008 1.462006,-0.812988c3.003998,0.270996 6.825958,3.880981 6.093964,9.836975c-1.27002,9.838013 -13.835968,18.231018 -27.314972,16.877014c-11.015015,-1.083008 -16.02002,-9.11499 -15.019012,-16.786011c1.639008,-13.356995 21.304993,-26.353973 40.151001,-24.458984c16.937988,1.625 28.322021,15.072998 26.496033,30.234009c-1.096008,8.573975 -5.82605,14.980988 -12.473022,19.85498z" fill="#000000" id="svg_9"/>
   </g>
   <g id="svg_10">
    <path d="m105.19619,239.619781c-1.822998,-15.160004 9.556999,-28.609009 26.497993,-30.234009c18.845993,-1.894989 38.511993,11.100983 40.153992,24.459015c0.998001,7.671997 -4.008987,15.703003 -15.023987,16.78598c-13.479004,1.354004 -26.042007,-7.040009 -27.315002,-16.877014c-0.731003,-5.955963 3.093002,-9.566986 6.097,-9.835968c0.367996,-0.091003 1.367996,-0.179993 1.459,0.812988c0.091003,0.720001 -0.63501,0.812988 -1.09201,0.812988c-1.093994,0.091003 -1.729996,0.18103 -2.551987,1.171997c-1.001007,1.263 -1.363007,2.979004 -1.089005,5.053009c0.268997,1.985992 1.179001,6.229004 9.194,12.097015c4.459991,3.247986 9.557999,5.77298 15.841995,5.142975c5.917999,-0.542999 11.473999,-4.062988 10.652008,-10.468964c-1.458008,-11.552032 -20.397003,-27.979004 -39.243011,-26.175018c-9.106995,0.902985 -19.937988,6.769989 -18.389984,18.953003c1.635986,13.627991 18.752991,23.194977 30.04599,26.895996c15.386993,5.143005 35.692993,5.053009 65.919998,2.075012c24.313995,-2.346008 31.412994,-3.15802 37.606003,-2.346008c7.646988,1.083008 10.836014,4.963989 11.017014,5.955994c0.090973,1.084015 -1.184021,1.89801 -2.461029,1.987c-1.91098,0.179993 -4.003983,-0.632996 -4.096985,-1.445984c0,-0.360016 0.363007,-0.720001 0.455994,-1.263c0.182007,-0.179016 0.093002,-0.541016 0.093002,-0.720001c-0.093002,-0.813019 -1.822998,-2.347015 -6.285004,-2.800018c-4.278992,-0.450989 -15.752991,0.722015 -20.302994,1.173004c-6.468002,0.631989 -12.929993,1.446014 -19.302994,2.347015c-10.195999,1.534973 -20.216003,3.067993 -30.320999,4.062988c-37.057007,3.700012 -48.256989,-2.799988 -55.084,-7.761993c-6.645996,-4.873016 -11.380997,-11.28302 -12.474998,-19.858002l0,0z" fill="#000000" id="svg_11"/>
   </g>
  </g>
 </g>
</svg>